<?xml version="1.0" encoding="utf-8" standalone="no"?>
<svg width="100%" height="100%" viewBox="0 0 1000 1000" version="1.2" xmlns:xlink="http://www.w3.org/1999/xlink" xmlns:serif="http://www.serif.com/" baseProfile="tiny-ps" stroke-miterlimit="2" stroke-linejoin="round" fill-rule="evenodd" xmlns="http://www.w3.org/2000/svg">
  <title>ETF-Math</title>
  <g id="Layer-1">
    <rect x="0" y="0" width="1000" height="1000" fill="#fff" />
    <path d="M135.889,993.219l59.538,-0l-0,-158.071l102.46,-107.787l36.815,-61.459l93.366,0l43.058,61.24l9.009,263.832l52.501,-0l11.506,-263.832l123.561,-203.237l-69.367,-286.723l-9.298,-65.256l-118.185,-13.592l0,78.848l-57.531,202.751l-217.199,-0l-70.121,114.734l49.707,143.291l-39.82,119.533l-0,175.728Z" fill-rule="nonzero" fill="#2b60ff" />
    <path d="M368.839,209.876c0.351,32.866 27.071,59.406 60.019,59.406c32.948,0 59.668,-26.54 60.019,-59.406l-120.038,0Z" fill-rule="nonzero" fill="#2b60ff" />
    <path d="M646.049,990.974l21.655,-379.906l-79.516,130.636l8.784,249.27l49.077,0Z" fill-rule="nonzero" fill="#2b60ff" />
    <path d="M446.255,731.093l-121.025,0l-34.119,137.911l28.261,125.151l57.853,0l-21.637,-113.726l90.667,-149.336Z" fill-rule="nonzero" fill="#2b60ff" />
    <path d="M579.362,179.977l139.372,50.492l0,77.536l-131.662,-0" fill-rule="nonzero" fill="#2b60ff" />
    <path d="M475.941,212.945c-114.067,0 -206.867,-92.798 -206.867,-206.867l47.252,0c-0,88.012 71.603,159.615 159.615,159.615l-0,47.252Z" fill-rule="nonzero" fill="#2b60ff" />
    <path d="M583.241,212.945c-114.066,0 -206.866,-92.798 -206.866,-206.867l47.251,0c0,88.012 71.604,159.615 159.615,159.615l0,47.252Z" fill-rule="nonzero" fill="#2b60ff" />
    <path d="M583.242,206.847l0,-41.115c89.703,0 162.684,-72.978 162.684,-162.683l41.113,-0c-0,112.376 -91.423,203.798 -203.797,203.798" fill-rule="nonzero" fill="#2b60ff" />
    <path d="M718.734,209.876l0,-41.113c89.703,0 162.684,-72.98 162.684,-162.683l41.112,-0c0,112.375 -91.422,203.796 -203.796,203.796" fill-rule="nonzero" fill="#2b60ff" />
    <path d="M413.322,439.932l-335.852,0l17.227,48.495l101.425,0" fill-rule="nonzero" fill="#2b60ff" />
  </g>
</svg>